# xmcd
#
# Track frame offsets:
#	150
#	10174
#	20895
#	31475
#	44400
#	56234
#	68352
#	79692
#	95113
#	105484
#	117389
#	128349
#	139190
#	148479
#	159044
#	169593
#	181560
#	196121
#	211521
#	220957
#
# Disc length: 3097 seconds
#
# Revision: 1
# Processed by: cddbd v1.5.2PL0 Copyright (c) Steve Scherf et al.
# Submitted via: audiograbber 1.83.01
#
DISCID=0d0c1714
DTITLE=Wanda Jackson - The Famous Wanda Jackson CD9
DYEAR=2012
DGENRE=Country
TTITLE0=Let´s Have A Party
TTITLE1=Let´s Stop Kickin´Our Hearts Around
TTITLE2=Lets Have A Party (Live)
TTITLE3=Let's Have A Party (Nieuw)
TTITLE4=Let's Say Goodbye Like We Said Hello
TTITLE5=Little Boy Soldier
TTITLE6=Little Charm Bracelet
TTITLE7=Little Things Mean A Lot
TTITLE8=Lonely For You
TTITLE9=Lonely Street
TTITLE10=Lonely Weekends
TTITLE11=Long As I Have You
TTITLE12=Long Tall Sally
TTITLE13=Look Out Heart
TTITLE14=Lost Weekend
TTITLE15=Louisiana Moon (german)
TTITLE16=Love Me Tender
TTITLE17=Love Of The Common People
TTITLE18=Love's Gonna Live Here
TTITLE19=Lovin´ Country Style
EXTD=
EXTT0=
EXTT1=
EXTT2=
EXTT3=
EXTT4=
EXTT5=
EXTT6=
EXTT7=
EXTT8=
EXTT9=
EXTT10=
EXTT11=
EXTT12=
EXTT13=
EXTT14=
EXTT15=
EXTT16=
EXTT17=
EXTT18=
EXTT19=
PLAYORDER=
